<?xml version="1.0" encoding="utf-8"?>
<!-- Generator: Adobe Illustrator 15.1.0, SVG Export Plug-In . SVG Version: 6.00 Build 0)  -->
<!DOCTYPE svg PUBLIC "-//W3C//DTD SVG 1.1//EN" "http://www.w3.org/Graphics/SVG/1.1/DTD/svg11.dtd">
<svg version="1.1" id="Layer_1" xmlns="http://www.w3.org/2000/svg" xmlns:xlink="http://www.w3.org/1999/xlink" x="0px" y="0px"
	 width="845.901px" height="313.398px" viewBox="0 0 845.901 313.398" enable-background="new 0 0 845.901 313.398"
	 xml:space="preserve">
<path fill="none" stroke="#C4960C" stroke-width="21" stroke-miterlimit="10" d="M171.17-232.938
	c1.348-6.587,3.336-12.941,5.896-18.994c2.56-6.053,5.692-11.805,9.328-17.188c3.638-5.383,7.779-10.397,12.356-14.976
	c4.577-4.578,9.593-8.719,14.976-12.355s11.135-6.769,17.188-9.329c6.053-2.561,12.407-4.548,18.994-5.896
	c6.587-1.348,13.407-2.056,20.393-2.056s13.806,0.708,20.393,2.056c6.587,1.348,12.941,3.335,18.994,5.896
	c6.053,2.56,11.805,5.692,17.188,9.329s10.398,7.778,14.976,12.355c4.577,4.578,8.719,9.592,12.356,14.976
	c3.636,5.383,6.769,11.135,9.328,17.188c2.561,6.053,4.549,12.407,5.896,18.994"/>
<g>
	<polygon fill="#C4960C" points="353.122,-301.257 382.215,-323.146 360.175,-294.167 	"/>
</g>
<g>
	<polygon fill="#C4960C" points="176.185,-294.07 154.452,-323.28 183.312,-301.085 	"/>
</g>
<g>
	<polygon fill="#C4960C" points="267.5,-331.277 272.5,-456.926 277.5,-331.277 	"/>
</g>
<g>
	<polygon fill="#C4960C" points="392.5,-248.08 507.562,-243.08 392.5,-238.08 	"/>
</g>
<g>
	<polygon fill="#C4960C" points="148.103,-238.08 44.438,-243.08 148.103,-248.08 	"/>
</g>
<circle fill="none" cx="-361.831" cy="615.203" r="197.24"/>
<path fill="none" d="M-218.399,615.203c0-19.804-4.014-38.67-11.271-55.83c-7.258-17.16-17.761-32.613-30.739-45.591
	c-12.978-12.979-28.432-23.481-45.591-30.739s-36.026-11.271-55.83-11.271s-38.67,4.014-55.83,11.271s-32.613,17.761-45.591,30.739
	c-12.978,12.978-23.48,28.431-30.739,45.591c-7.258,17.16-11.271,36.026-11.271,55.83s4.014,38.67,11.271,55.83
	c7.258,17.16,17.761,32.613,30.739,45.591c12.978,12.979,28.432,23.481,45.591,30.739s36.026,11.271,55.83,11.271
	s38.67-4.014,55.83-11.271s32.613-17.761,45.591-30.739c12.978-12.978,23.48-28.431,30.739-45.591
	C-222.413,653.873-218.399,635.007-218.399,615.203z"/>
<circle display="none" fill="none" stroke="#000000" stroke-miterlimit="10" cx="-380" cy="-115.052" r="81.553"/>
<polygon display="none" fill="none" stroke="#000000" stroke-miterlimit="10" points="-656.757,65.282 -656.757,29.546 
	-620.876,65.282 "/>
<g>
	<path fill="#C4960C" d="M-601.476-413.083c3.192,1.348,6.226,2.995,9.064,4.908c2.838,1.914,5.483,4.092,7.897,6.501
		c2.415,2.408,4.598,5.046,6.516,7.878c1.917,2.832,3.569,5.857,4.919,9.042s2.399,6.526,3.109,9.992
		c0.711,3.465,1.084,7.054,1.084,10.729s-0.373,7.263-1.084,10.729c-0.71,3.465-1.759,6.808-3.109,9.992s-3.002,6.21-4.919,9.042
		c-1.918,2.832-4.102,5.47-6.516,7.879c-2.414,2.407-5.059,4.587-7.897,6.5s-5.873,3.562-9.064,4.907
		c-3.191,1.348-6.542,2.393-10.017,3.103c-3.473,0.709-7.07,1.081-10.753,1.081c-3.684,0-7.281-0.372-10.755-1.081
		c-3.473-0.71-6.823-1.755-10.016-3.103c-3.192-1.346-6.225-2.994-9.063-4.907c-2.839-1.913-5.483-4.093-7.897-6.5
		c-2.415-2.409-4.598-5.047-6.516-7.879c-1.917-2.832-3.57-5.857-4.919-9.042c-1.351-3.185-2.399-6.527-3.109-9.992
		c-0.711-3.466-1.084-7.054-1.084-10.729s0.373-7.264,1.084-10.729c0.71-3.466,1.759-6.808,3.109-9.992
		c1.35-3.185,3.002-6.21,4.919-9.042c1.918-2.832,4.102-5.47,6.516-7.878c2.414-2.409,5.058-4.587,7.897-6.501
		c2.838-1.913,5.872-3.561,9.063-4.908l5.842,13.714c-2.293,0.97-4.474,2.157-6.514,3.535c-2.04,1.379-3.94,2.948-5.675,4.684
		c-1.736,1.734-3.305,3.635-4.684,5.676c-1.377,2.04-2.565,4.22-3.536,6.514c-0.97,2.295-1.723,4.702-2.234,7.199
		c-0.511,2.496-0.78,5.081-0.78,7.729c0,2.648,0.269,5.232,0.78,7.729c0.511,2.497,1.264,4.904,2.234,7.198
		c0.971,2.295,2.158,4.475,3.536,6.515c1.379,2.04,2.948,3.94,4.684,5.676c1.735,1.735,3.635,3.305,5.675,4.684
		c2.04,1.377,4.22,2.564,6.514,3.535c2.295,0.97,4.703,1.724,7.199,2.235c2.497,0.51,5.083,0.778,7.729,0.778
		s5.232-0.269,7.729-0.778c2.496-0.512,4.904-1.266,7.199-2.235c2.293-0.971,4.474-2.158,6.514-3.535
		c2.04-1.379,3.94-2.948,5.675-4.684c1.735-1.735,3.305-3.636,4.684-5.676c1.378-2.04,2.565-4.22,3.536-6.515
		c0.97-2.294,1.724-4.701,2.235-7.198c0.511-2.497,0.779-5.081,0.779-7.729c0-2.647-0.268-5.232-0.779-7.729
		c-0.512-2.497-1.266-4.904-2.235-7.199c-0.97-2.294-2.158-4.474-3.536-6.514c-1.379-2.041-2.948-3.941-4.684-5.676
		c-1.735-1.735-3.635-3.305-5.675-4.684c-2.041-1.378-4.221-2.565-6.514-3.535L-601.476-413.083z"/>
	<polygon fill="#C4960C" points="-518.312,-363.818 -561.741,-360.356 -561.741,-367.281 	"/>
	<polygon fill="#C4960C" points="-622.246,-259.935 -625.708,-303.313 -618.784,-303.313 	"/>
	<polygon fill="#C4960C" points="-726.129,-363.818 -682.75,-367.484 -682.75,-360.561 	"/>
	<rect x="-628.923" y="-442.197" fill="#C4960C" width="13.354" height="72.58"/>
	<polygon fill="#C4960C" points="-560.376,-425.246 -576.839,-403.887 -581.734,-408.783 	"/>
	<polygon fill="#C4960C" points="-560.375,-302.224 -581.735,-318.688 -576.839,-323.583 	"/>
	<polygon fill="#C4960C" points="-683.932,-302.224 -667.468,-323.583 -662.572,-318.688 	"/>
	<polygon fill="#C4960C" points="-684.354,-425.245 -662.994,-408.783 -667.89,-403.887 	"/>
</g>
<g>
	<g>
		<path d="M-472.224-429.454v15.745c-4.913-3.516-9.334-5.274-13.263-5.274c-4.24,0-7.705,1.5-10.393,4.499
			c-2.689,2.844-4.033,6.645-4.033,11.401c0,4.188,0.956,7.783,2.87,10.781c0.982,1.604,2.599,3.672,4.848,6.205
			c2.25,2.534,5.158,5.584,8.726,9.152c6.566,6.67,11.039,12.436,13.418,17.296c2.378,4.706,3.568,10.471,3.568,17.296
			c0,9.256-2.611,16.883-7.833,22.881c-5.223,5.844-11.919,8.764-20.088,8.764c-6.877,0-12.747-1.887-17.606-5.662v-15.978
			c5.74,4.188,10.961,6.283,15.667,6.283c4.394,0,7.833-1.46,10.315-4.382c2.482-2.92,3.723-6.89,3.723-11.906
			c0-4.343-0.958-8.247-2.87-11.711c-0.983-1.654-2.354-3.555-4.111-5.701c-1.759-2.145-3.956-4.538-6.593-7.174
			c-4.085-4.033-7.473-7.601-10.161-10.704c-2.689-3.103-4.68-5.817-5.972-8.144c-2.482-4.549-3.723-10.289-3.723-17.218
			c0-9.358,2.43-16.779,7.291-22.26c4.912-5.532,11.504-8.299,19.778-8.299C-482.927-433.564-477.447-432.194-472.224-429.454z"/>
		<path d="M-383.426-369.111c0,21.148-2.354,36.17-7.058,45.063c-4.706,8.894-12.592,13.34-23.656,13.34
			c-11.634,0-19.83-4.782-24.587-14.349c-4.706-9.358-7.058-25.983-7.058-49.872c0-21.302,2.327-36.376,6.98-45.218
			c4.705-8.893,12.668-13.34,23.889-13.34c10.031,0,17.477,3.439,22.337,10.315c3.206,4.603,5.532,11.143,6.98,19.623
			C-384.151-395.688-383.426-384.209-383.426-369.111z M-400.334-367.405c0-20.734-0.931-34.488-2.792-41.262
			c-1.861-6.825-5.662-10.238-11.401-10.238c-5.74,0-9.567,3.129-11.479,9.385c-1.861,6.309-2.792,18.977-2.792,38.005
			c0,17.529,0.982,29.68,2.947,36.454c2.017,6.412,5.791,9.618,11.324,9.618c5.429,0,9.152-2.999,11.169-8.997
			C-401.343-340.387-400.334-351.375-400.334-367.405z"/>
		<path d="M-357.917-431.936h16.132v106.104h26.371v13.651h-42.503V-431.936z"/>
		<path d="M-272.377-431.936h12.565l25.673,119.754h-15.978l-4.499-23.346h-23.734l-4.576,23.346h-15.512L-272.377-431.936z
			 M-256.942-348.015l-3.568-19.08c-2.379-12.978-4.318-26.836-5.817-41.573c-0.725,7.188-1.655,14.465-2.792,21.833
			c-1.138,7.368-2.482,15.19-4.033,23.462l-2.947,15.357H-256.942z"/>
		<path d="M-215.146-431.936h21.251c8.79,0,15.331,2.094,19.623,6.283c5.429,5.429,8.144,13.728,8.144,24.897
			c0,8.584-1.435,15.474-4.305,20.67c-2.87,5.197-6.969,8.416-12.293,9.656l22.027,58.249h-16.366l-21.95-58.636v58.636h-16.132
			V-431.936z M-199.014-378.884c6.256,0,10.677-1.447,13.263-4.343c2.585-2.895,3.878-7.782,3.878-14.659
			c0-3.723-0.271-6.903-0.814-9.54c-0.543-2.637-1.396-4.782-2.56-6.438c-1.163-1.654-2.664-2.87-4.499-3.645
			c-1.836-0.776-4.021-1.164-6.554-1.164h-2.715V-378.884z"/>
		<path d="M-138.68-431.936h16.132v119.754h-16.132V-431.936z"/>
		<path d="M-54.614-429.454v15.745c-4.913-3.516-9.334-5.274-13.263-5.274c-4.24,0-7.705,1.5-10.393,4.499
			c-2.689,2.844-4.033,6.645-4.033,11.401c0,4.188,0.956,7.783,2.87,10.781c0.982,1.604,2.599,3.672,4.848,6.205
			c2.25,2.534,5.158,5.584,8.726,9.152c6.566,6.67,11.039,12.436,13.418,17.296c2.378,4.706,3.568,10.471,3.568,17.296
			c0,9.256-2.611,16.883-7.833,22.881c-5.223,5.844-11.919,8.764-20.088,8.764c-6.877,0-12.747-1.887-17.606-5.662v-15.978
			c5.74,4.188,10.961,6.283,15.667,6.283c4.394,0,7.833-1.46,10.315-4.382c2.482-2.92,3.723-6.89,3.723-11.906
			c0-4.343-0.958-8.247-2.87-11.711c-0.983-1.654-2.354-3.555-4.111-5.701c-1.759-2.145-3.956-4.538-6.593-7.174
			c-4.085-4.033-7.473-7.601-10.161-10.704c-2.689-3.103-4.68-5.817-5.972-8.144c-2.482-4.549-3.723-10.289-3.723-17.218
			c0-9.358,2.43-16.779,7.291-22.26c4.912-5.532,11.504-8.299,19.778-8.299C-65.317-433.564-59.837-432.194-54.614-429.454z"/>
	</g>
	<g>
		<path d="M-507.075-291.942h12.798c2.891,0,5.097,0.655,6.618,1.964c1.521,1.31,2.282,3.023,2.282,5.14
			c0,2.117-0.701,3.73-2.102,4.841c-1.927,1.532-4.304,2.298-7.13,2.298h-4.625v8.858c0,0.515,0.123,0.883,0.368,1.105
			c0.327,0.28,0.766,0.421,1.315,0.421h2.947v1.315h-12.472v-1.315h2.607c0.517,0,0.895-0.103,1.136-0.307s0.361-0.482,0.361-0.833
			v-20.681c0-0.526-0.153-0.906-0.458-1.14s-0.881-0.351-1.727-0.351h-1.92V-291.942z M-499.234-278.979h3.52
			c2.229,0,3.837-0.465,4.824-1.395c0.986-0.93,1.479-2.465,1.479-4.604c0-1.497-0.222-2.646-0.666-3.447s-1.094-1.395-1.952-1.781
			c-0.858-0.386-2.268-0.579-4.229-0.579c-1.296,0-2.116,0.123-2.46,0.368s-0.516,0.673-0.516,1.281V-278.979z"/>
		<path d="M-461.049-292.486c2.187,0,4.236,0.576,6.148,1.728c1.912,1.152,3.409,2.76,4.491,4.824
			c1.082,2.064,1.623,4.388,1.623,6.972c0,2.585-0.544,4.917-1.631,6.999s-2.582,3.704-4.482,4.868s-3.915,1.745-6.042,1.745
			c-2.082,0-4.035-0.57-5.859-1.71s-3.289-2.771-4.394-4.894s-1.657-4.476-1.657-7.06c0-2.549,0.535-4.85,1.605-6.902
			c1.07-2.052,2.534-3.66,4.394-4.824S-463.06-292.486-461.049-292.486z M-460.768-291.135c-2.28,0-4.128,0.947-5.543,2.842
			c-1.415,1.895-2.123,4.981-2.123,9.262c0,4.643,0.725,7.853,2.175,9.63c1.45,1.777,3.245,2.666,5.385,2.666
			c1.497,0,2.812-0.403,3.947-1.21c1.134-0.807,2.038-2.087,2.71-3.841c0.672-1.754,1.009-4.058,1.009-6.911
			c0-3.11-0.316-5.54-0.947-7.288c-0.631-1.748-1.532-3.043-2.701-3.885C-458.026-290.714-459.33-291.135-460.768-291.135z"/>
		<path d="M-436.545-291.942h8.666v1.315h-0.612c-0.909,0-1.489,0.07-1.74,0.21c-0.251,0.141-0.376,0.363-0.376,0.667
			c0,0.211,0.088,0.544,0.263,1l0.105,0.333l5.28,16.471l4.635-15.214c-0.541-1.728-0.954-2.738-1.24-3.029
			c-0.286-0.292-0.854-0.438-1.706-0.438h-1.575v-1.315h10.823v1.315h-1.122c-0.981,0-1.618,0.079-1.91,0.237
			c-0.292,0.158-0.438,0.395-0.438,0.71c0,0.246,0.035,0.474,0.105,0.684l5.373,17.05l4.424-14.752
			c0.175-0.573,0.263-1.123,0.263-1.649c0-0.783-0.178-1.359-0.535-1.728c-0.356-0.369-0.89-0.553-1.602-0.553h-0.806v-1.315h8.139
			v1.315c-0.714,0.094-1.281,0.266-1.703,0.518s-0.787,0.611-1.097,1.079c-0.31,0.468-0.623,1.246-0.939,2.333l-6.393,21.312h-1.249
			l-5.967-19.065l-5.693,19.065h-1.314l-7.305-23.031c-0.293-0.9-0.624-1.494-0.992-1.781c-0.369-0.286-0.957-0.43-1.764-0.43
			V-291.942z"/>
		<path d="M-389.87-291.942h20.558l0.491,8.753h-1.175c-0.467-2.76-1.206-4.689-2.216-5.789s-2.327-1.649-3.95-1.649h-5.08
			c-0.409,0-0.718,0.111-0.929,0.333c-0.21,0.222-0.315,0.561-0.315,1.017v9.244h2.221c1.189,0,2.154-0.427,2.895-1.28
			s1.14-2.164,1.198-3.929h1.21v12.015h-1.21c-0.058-1.988-0.464-3.412-1.216-4.271s-1.775-1.289-3.07-1.289h-2.029v10.314
			c0,0.375,0.125,0.661,0.376,0.859c0.251,0.199,0.668,0.298,1.252,0.298h4.012c4.356,0,6.867-2.783,7.532-8.35h1.263l-0.438,9.665
			h-21.382v-1.315h1.771c0.69,0,1.175-0.12,1.456-0.36c0.28-0.239,0.421-0.587,0.421-1.043v-20.558c0-0.456-0.123-0.795-0.369-1.017
			c-0.245-0.222-0.631-0.333-1.157-0.333h-2.123V-291.942z"/>
		<path d="M-355.666-291.942h13.401c2.596,0,4.61,0.591,6.042,1.771c1.433,1.182,2.149,2.731,2.149,4.648
			c0,1.146-0.284,2.167-0.851,3.061c-0.567,0.895-1.386,1.608-2.456,2.14c-1.07,0.532-2.751,0.916-5.043,1.149
			c1.668,0.456,2.817,0.903,3.447,1.342c0.63,0.438,1.134,1.006,1.514,1.701c0.379,0.696,0.817,2.114,1.313,4.254
			c0.355,1.532,0.731,2.578,1.128,3.14c0.304,0.433,0.631,0.649,0.982,0.649c0.362,0,0.699-0.266,1.008-0.798
			c0.31-0.532,0.5-1.471,0.57-2.815h1.193c-0.222,3.976-1.69,5.964-4.403,5.964c-0.854,0-1.594-0.217-2.219-0.649
			c-0.626-0.433-1.097-1.07-1.412-1.912c-0.246-0.631-0.521-2.286-0.825-4.964c-0.175-1.555-0.453-2.66-0.833-3.315
			c-0.38-0.655-0.974-1.181-1.78-1.579c-0.807-0.397-1.772-0.596-2.895-0.596h-2.122v10.191c0,0.433,0.111,0.737,0.333,0.912
			c0.281,0.222,0.719,0.333,1.315,0.333h2.491v1.315h-12.051v-1.315h2.543c0.562,0,0.974-0.111,1.237-0.333
			c0.263-0.222,0.395-0.526,0.395-0.912v-20.733c0-0.444-0.135-0.777-0.403-1c-0.27-0.222-0.679-0.333-1.228-0.333h-2.543V-291.942z
			 M-347.754-280.014h3.069c2.058,0,3.669-0.388,4.833-1.165s1.746-2.157,1.746-4.142c0-1.366-0.22-2.446-0.658-3.239
			c-0.438-0.794-1.015-1.337-1.728-1.629c-0.713-0.292-2.117-0.438-4.21-0.438c-1.38,0-2.233,0.097-2.561,0.289
			c-0.327,0.193-0.491,0.522-0.491,0.989V-280.014z"/>
		<path d="M-276.21-289.978l1.579-2.263h1.28l0.105,9.455h-1.158c-0.725-2.9-1.798-5.017-3.219-6.35s-3.055-2-4.903-2
			c-1.543,0-2.807,0.462-3.789,1.387c-0.982,0.925-1.474,2.054-1.474,3.389c0,0.831,0.187,1.56,0.561,2.186
			c0.374,0.626,0.932,1.136,1.674,1.527c0.742,0.392,2.143,0.81,4.201,1.251c2.89,0.628,4.916,1.264,6.08,1.907
			c1.163,0.643,2.032,1.453,2.604,2.429c0.573,0.977,0.859,2.12,0.859,3.429c0,2.339-0.786,4.277-2.359,5.815
			c-1.573,1.538-3.605,2.307-6.096,2.307c-2.678,0-5.005-0.865-6.981-2.596l-1.982,2.421h-1.263v-10.051h1.263
			c0.491,2.771,1.59,4.958,3.298,6.561c1.707,1.602,3.631,2.403,5.771,2.403c1.73,0,3.143-0.511,4.236-1.535
			c1.093-1.023,1.64-2.266,1.64-3.728c0-0.83-0.205-1.558-0.614-2.184c-0.41-0.625-1.059-1.152-1.947-1.579
			s-2.637-0.944-5.245-1.553c-2.865-0.678-4.818-1.438-5.858-2.28c-1.462-1.192-2.193-2.882-2.193-5.069
			c0-2.28,0.728-4.148,2.184-5.604c1.456-1.456,3.318-2.184,5.586-2.184c1.088,0,2.123,0.193,3.105,0.579
			S-277.263-290.877-276.21-289.978z"/>
		<path d="M-260.705-291.942h11.366v1.315h-1.259c-1.05,0-1.732,0.082-2.047,0.246c-0.315,0.164-0.473,0.392-0.473,0.684
			c0,0.304,0.082,0.579,0.246,0.825l6.583,10.223l4.738-8.715c0.211-0.386,0.316-0.807,0.316-1.263c0-0.608-0.199-1.093-0.596-1.456
			c-0.398-0.362-0.965-0.544-1.702-0.544h-1.21v-1.315h9.893v1.315c-1.129,0-2.021,0.199-2.673,0.597
			c-0.652,0.397-1.281,1.146-1.886,2.245l-6,10.963v8.209c0,0.433,0.123,0.743,0.369,0.93c0.339,0.246,0.842,0.369,1.508,0.369
			h2.228v1.315h-11.91v-1.315h2.351c0.631,0,1.087-0.114,1.368-0.342s0.421-0.546,0.421-0.956v-7.981l-8.051-12.542
			c-0.351-0.538-0.76-0.915-1.228-1.131c-0.468-0.216-1.251-0.336-2.351-0.36V-291.942z"/>
		<path d="M-208.89-289.978l1.579-2.263h1.28l0.105,9.455h-1.158c-0.725-2.9-1.798-5.017-3.219-6.35s-3.055-2-4.903-2
			c-1.543,0-2.807,0.462-3.789,1.387c-0.982,0.925-1.474,2.054-1.474,3.389c0,0.831,0.187,1.56,0.561,2.186
			c0.374,0.626,0.932,1.136,1.674,1.527c0.742,0.392,2.143,0.81,4.201,1.251c2.89,0.628,4.916,1.264,6.08,1.907
			c1.163,0.643,2.032,1.453,2.604,2.429c0.573,0.977,0.859,2.12,0.859,3.429c0,2.339-0.786,4.277-2.359,5.815
			c-1.573,1.538-3.605,2.307-6.096,2.307c-2.678,0-5.005-0.865-6.981-2.596l-1.982,2.421h-1.263v-10.051h1.263
			c0.491,2.771,1.59,4.958,3.298,6.561c1.707,1.602,3.631,2.403,5.771,2.403c1.73,0,3.143-0.511,4.236-1.535
			c1.093-1.023,1.64-2.266,1.64-3.728c0-0.83-0.205-1.558-0.614-2.184c-0.41-0.625-1.059-1.152-1.947-1.579
			s-2.637-0.944-5.245-1.553c-2.865-0.678-4.818-1.438-5.858-2.28c-1.462-1.192-2.193-2.882-2.193-5.069
			c0-2.28,0.728-4.148,2.184-5.604c1.456-1.456,3.318-2.184,5.586-2.184c1.088,0,2.123,0.193,3.105,0.579
			S-209.942-290.877-208.89-289.978z"/>
		<path d="M-191.595-291.942h21.066l0.509,9.805h-1.21c-0.797-5.765-2.883-8.647-6.258-8.647c-0.68,0-1.146,0.117-1.398,0.351
			c-0.252,0.234-0.378,0.62-0.378,1.158v20.733c0,0.421,0.123,0.731,0.369,0.93c0.246,0.199,0.649,0.298,1.21,0.298h2.613v1.315
			h-12.05v-1.315h2.982c0.397,0,0.702-0.099,0.912-0.298c0.21-0.199,0.315-0.462,0.315-0.79v-21.031
			c0-0.444-0.134-0.781-0.403-1.009s-0.702-0.342-1.298-0.342c-1.696,0-3.111,0.801-4.245,2.403
			c-0.936,1.322-1.608,3.403-2.017,6.245h-1.28L-191.595-291.942z"/>
		<path d="M-157.163-291.942h20.558l0.491,8.753h-1.175c-0.467-2.76-1.206-4.689-2.216-5.789s-2.327-1.649-3.95-1.649h-5.08
			c-0.409,0-0.718,0.111-0.929,0.333c-0.21,0.222-0.315,0.561-0.315,1.017v9.244h2.221c1.189,0,2.154-0.427,2.895-1.28
			s1.14-2.164,1.198-3.929h1.21v12.015h-1.21c-0.058-1.988-0.464-3.412-1.216-4.271s-1.775-1.289-3.07-1.289h-2.029v10.314
			c0,0.375,0.125,0.661,0.376,0.859c0.251,0.199,0.668,0.298,1.252,0.298h4.012c4.356,0,6.867-2.783,7.532-8.35h1.263l-0.438,9.665
			h-21.382v-1.315h1.771c0.69,0,1.175-0.12,1.456-0.36c0.28-0.239,0.421-0.587,0.421-1.043v-20.558c0-0.456-0.123-0.795-0.369-1.017
			c-0.245-0.222-0.631-0.333-1.157-0.333h-2.123V-291.942z"/>
		<path d="M-123.275-291.942h8.638l7.754,20.488l7.136-20.488h8.835v1.315h-2.157c-0.76,0-1.272,0.111-1.535,0.333
			c-0.263,0.222-0.395,0.608-0.395,1.158v20.54c0,0.41,0.158,0.726,0.474,0.947c0.316,0.222,0.859,0.333,1.631,0.333h1.982v1.315
			h-11.875v-1.315h2.22c0.634,0,1.104-0.12,1.409-0.36c0.306-0.239,0.458-0.546,0.458-0.921v-22.031l-8.578,24.627h-1.182
			l-9.237-24.522v18.856c0,1.123,0.14,1.962,0.421,2.517s0.681,0.982,1.202,1.28c0.52,0.298,1.383,0.482,2.587,0.553v1.315h-9.788
			v-1.315c1.602-0.105,2.689-0.45,3.263-1.035c0.573-0.584,0.859-1.62,0.859-3.104v-17.892c0-0.444-0.134-0.769-0.403-0.974
			s-0.771-0.307-1.508-0.307h-2.21V-291.942z"/>
		<path d="M-63.654-289.978l1.579-2.263h1.28l0.105,9.455h-1.158c-0.725-2.9-1.798-5.017-3.219-6.35s-3.055-2-4.903-2
			c-1.543,0-2.807,0.462-3.789,1.387c-0.982,0.925-1.474,2.054-1.474,3.389c0,0.831,0.187,1.56,0.561,2.186
			c0.374,0.626,0.932,1.136,1.674,1.527c0.742,0.392,2.143,0.81,4.201,1.251c2.89,0.628,4.916,1.264,6.08,1.907
			c1.163,0.643,2.032,1.453,2.604,2.429c0.573,0.977,0.859,2.12,0.859,3.429c0,2.339-0.786,4.277-2.359,5.815
			c-1.573,1.538-3.605,2.307-6.096,2.307c-2.678,0-5.005-0.865-6.981-2.596l-1.982,2.421h-1.263v-10.051h1.263
			c0.491,2.771,1.59,4.958,3.298,6.561c1.707,1.602,3.631,2.403,5.771,2.403c1.73,0,3.143-0.511,4.236-1.535
			c1.093-1.023,1.64-2.266,1.64-3.728c0-0.83-0.205-1.558-0.614-2.184c-0.41-0.625-1.059-1.152-1.947-1.579
			s-2.637-0.944-5.245-1.553c-2.865-0.678-4.818-1.438-5.858-2.28c-1.462-1.192-2.193-2.882-2.193-5.069
			c0-2.28,0.728-4.148,2.184-5.604c1.456-1.456,3.318-2.184,5.586-2.184c1.088,0,2.123,0.193,3.105,0.579
			S-64.707-290.877-63.654-289.978z"/>
	</g>
</g>
<g>
	<g>
		<path d="M93.611-212.851v15.745c-4.913-3.516-9.334-5.274-13.264-5.274c-4.24,0-7.705,1.5-10.393,4.499
			c-2.689,2.844-4.033,6.645-4.033,11.401c0,4.188,0.956,7.783,2.869,10.781c0.982,1.604,2.6,3.672,4.848,6.205
			c2.25,2.534,5.158,5.584,8.727,9.152c6.565,6.67,11.039,12.436,13.418,17.296c2.377,4.706,3.567,10.471,3.567,17.296
			c0,9.256-2.611,16.883-7.833,22.881c-5.224,5.844-11.92,8.764-20.089,8.764c-6.878,0-12.747-1.887-17.606-5.662v-15.978
			c5.74,4.188,10.961,6.283,15.668,6.283c4.394,0,7.833-1.46,10.314-4.382c2.482-2.92,3.724-6.89,3.724-11.906
			c0-4.343-0.958-8.247-2.87-11.711c-0.982-1.654-2.354-3.555-4.11-5.701c-1.759-2.145-3.956-4.538-6.593-7.174
			c-4.086-4.033-7.473-7.601-10.16-10.704c-2.689-3.103-4.681-5.817-5.973-8.144c-2.482-4.549-3.723-10.289-3.723-17.218
			c0-9.358,2.43-16.779,7.291-22.26c4.911-5.532,11.504-8.299,19.777-8.299C82.908-216.961,88.388-215.591,93.611-212.851z"/>
		<path d="M182.409-152.508c0,21.148-2.354,36.17-7.058,45.063c-4.707,8.894-12.592,13.34-23.656,13.34
			c-11.635,0-19.83-4.782-24.588-14.349c-4.705-9.358-7.058-25.983-7.058-49.872c0-21.302,2.327-36.376,6.98-45.218
			c4.704-8.893,12.668-13.34,23.89-13.34c10.03,0,17.477,3.439,22.337,10.315c3.206,4.603,5.532,11.143,6.98,19.623
			C181.684-179.085,182.409-167.606,182.409-152.508z M165.5-150.802c0-20.734-0.93-34.488-2.791-41.262
			c-1.861-6.825-5.662-10.238-11.402-10.238c-5.739,0-9.566,3.129-11.479,9.385c-1.861,6.309-2.793,18.977-2.793,38.005
			c0,17.529,0.982,29.68,2.947,36.454c2.018,6.412,5.791,9.618,11.324,9.618c5.43,0,9.152-2.999,11.17-8.997
			C164.492-123.784,165.5-134.772,165.5-150.802z"/>
		<path d="M207.918-215.333h16.132v106.104h26.371v13.651h-42.503V-215.333z"/>
		<path d="M293.457-215.333h12.565l25.673,119.754h-15.978l-4.499-23.346h-23.733l-4.575,23.346h-15.513L293.457-215.333z
			 M308.893-131.412l-3.568-19.08c-2.379-12.978-4.318-26.836-5.816-41.573c-0.725,7.188-1.656,14.465-2.793,21.833
			c-1.138,7.368-2.481,15.19-4.033,23.462l-2.947,15.357H308.893z"/>
		<path d="M350.689-215.333h21.251c8.79,0,15.331,2.094,19.623,6.283c5.429,5.429,8.144,13.728,8.144,24.897
			c0,8.584-1.435,15.474-4.305,20.67c-2.869,5.197-6.969,8.416-12.293,9.656l22.027,58.249h-16.365l-21.95-58.636v58.636h-16.132
			V-215.333z M366.821-162.281c6.256,0,10.677-1.447,13.263-4.343c2.586-2.895,3.879-7.782,3.879-14.659
			c0-3.723-0.271-6.903-0.814-9.54c-0.543-2.637-1.396-4.782-2.561-6.438c-1.162-1.654-2.663-2.87-4.498-3.645
			c-1.836-0.776-4.021-1.164-6.554-1.164h-2.715V-162.281z"/>
		<path d="M427.154-215.333h16.133v119.754h-16.133V-215.333z"/>
		<path d="M511.221-212.851v15.745c-4.912-3.516-9.334-5.274-13.263-5.274c-4.24,0-7.705,1.5-10.394,4.499
			c-2.688,2.844-4.033,6.645-4.033,11.401c0,4.188,0.957,7.783,2.87,10.781c0.981,1.604,2.599,3.672,4.848,6.205
			c2.249,2.534,5.157,5.584,8.726,9.152c6.566,6.67,11.039,12.436,13.418,17.296c2.378,4.706,3.568,10.471,3.568,17.296
			c0,9.256-2.611,16.883-7.834,22.881c-5.223,5.844-11.919,8.764-20.088,8.764c-6.878,0-12.747-1.887-17.607-5.662v-15.978
			c5.74,4.188,10.962,6.283,15.668,6.283c4.395,0,7.834-1.46,10.315-4.382c2.481-2.92,3.724-6.89,3.724-11.906
			c0-4.343-0.958-8.247-2.87-11.711c-0.983-1.654-2.354-3.555-4.11-5.701c-1.76-2.145-3.956-4.538-6.594-7.174
			c-4.085-4.033-7.473-7.601-10.16-10.704c-2.689-3.103-4.68-5.817-5.973-8.144c-2.481-4.549-3.723-10.289-3.723-17.218
			c0-9.358,2.43-16.779,7.291-22.26c4.912-5.532,11.504-8.299,19.778-8.299C500.518-216.961,505.998-215.591,511.221-212.851z"/>
	</g>
	<g>
		<path d="M58.76-75.339h12.798c2.891,0,5.097,0.655,6.618,1.964c1.521,1.31,2.281,3.023,2.281,5.14c0,2.117-0.7,3.73-2.102,4.841
			c-1.928,1.532-4.304,2.298-7.13,2.298h-4.625v8.858c0,0.515,0.122,0.883,0.368,1.105c0.327,0.28,0.766,0.421,1.315,0.421h2.947
			v1.315H58.76v-1.315h2.607c0.517,0,0.895-0.103,1.136-0.307s0.361-0.482,0.361-0.833v-20.681c0-0.526-0.153-0.906-0.458-1.14
			s-0.881-0.351-1.727-0.351h-1.92V-75.339z M66.601-62.376h3.52c2.229,0,3.837-0.465,4.823-1.395s1.48-2.465,1.48-4.604
			c0-1.497-0.223-2.646-0.666-3.447s-1.094-1.395-1.952-1.781c-0.858-0.386-2.268-0.579-4.229-0.579
			c-1.296,0-2.116,0.123-2.46,0.368c-0.345,0.246-0.517,0.673-0.517,1.281V-62.376z"/>
		<path d="M104.786-75.883c2.187,0,4.236,0.576,6.147,1.728c1.912,1.152,3.409,2.76,4.491,4.824
			c1.081,2.064,1.622,4.388,1.622,6.972c0,2.585-0.543,4.917-1.631,6.999s-2.582,3.704-4.482,4.868s-3.914,1.745-6.042,1.745
			c-2.081,0-4.034-0.57-5.858-1.71s-3.289-2.771-4.395-4.894s-1.657-4.476-1.657-7.06c0-2.549,0.534-4.85,1.604-6.902
			s2.535-3.66,4.395-4.824S102.775-75.883,104.786-75.883z M105.066-74.532c-2.279,0-4.128,0.947-5.543,2.842
			c-1.414,1.895-2.122,4.981-2.122,9.262c0,4.643,0.726,7.853,2.175,9.63c1.45,1.777,3.246,2.666,5.385,2.666
			c1.498,0,2.812-0.403,3.947-1.21c1.135-0.807,2.037-2.087,2.71-3.841c0.673-1.754,1.009-4.058,1.009-6.911
			c0-3.11-0.316-5.54-0.947-7.288c-0.631-1.748-1.532-3.043-2.701-3.885C107.809-74.111,106.506-74.532,105.066-74.532z"/>
		<path d="M129.29-75.339h8.665v1.315h-0.611c-0.909,0-1.488,0.07-1.74,0.21c-0.251,0.141-0.376,0.363-0.376,0.667
			c0,0.211,0.088,0.544,0.263,1l0.105,0.333l5.28,16.471l4.635-15.214c-0.54-1.728-0.954-2.738-1.239-3.029
			c-0.287-0.292-0.855-0.438-1.707-0.438h-1.574v-1.315h10.822v1.315h-1.121c-0.982,0-1.619,0.079-1.91,0.237
			c-0.293,0.158-0.438,0.395-0.438,0.71c0,0.246,0.035,0.474,0.105,0.684l5.372,17.05l4.425-14.752
			c0.175-0.573,0.263-1.123,0.263-1.649c0-0.783-0.178-1.359-0.534-1.728c-0.356-0.369-0.89-0.553-1.602-0.553h-0.806v-1.315h8.139
			v1.315c-0.714,0.094-1.281,0.266-1.703,0.518c-0.421,0.251-0.786,0.611-1.097,1.079c-0.31,0.468-0.623,1.246-0.938,2.333
			l-6.393,21.312h-1.249l-5.967-19.065l-5.692,19.065h-1.314l-7.305-23.031c-0.293-0.9-0.624-1.494-0.992-1.781
			c-0.369-0.286-0.957-0.43-1.765-0.43V-75.339z"/>
		<path d="M175.965-75.339h20.559l0.49,8.753h-1.175c-0.467-2.76-1.206-4.689-2.216-5.789s-2.326-1.649-3.949-1.649h-5.08
			c-0.409,0-0.719,0.111-0.929,0.333s-0.315,0.561-0.315,1.017v9.244h2.222c1.189,0,2.154-0.427,2.896-1.28
			c0.74-0.854,1.14-2.164,1.197-3.929h1.211v12.015h-1.211c-0.058-1.988-0.463-3.412-1.215-4.271s-1.775-1.289-3.07-1.289h-2.029
			v10.314c0,0.375,0.126,0.661,0.377,0.859c0.251,0.199,0.668,0.298,1.252,0.298h4.012c4.356,0,6.867-2.783,7.533-8.35h1.263
			l-0.438,9.665h-21.383v-1.315h1.771c0.69,0,1.176-0.12,1.457-0.36c0.279-0.239,0.42-0.587,0.42-1.043v-20.558
			c0-0.456-0.123-0.795-0.368-1.017s-0.632-0.333-1.157-0.333h-2.123V-75.339z"/>
		<path d="M210.17-75.339h13.4c2.596,0,4.61,0.591,6.043,1.771c1.433,1.182,2.148,2.731,2.148,4.648c0,1.146-0.283,2.167-0.85,3.061
			c-0.568,0.895-1.387,1.608-2.457,2.14c-1.069,0.532-2.75,0.916-5.043,1.149c1.668,0.456,2.817,0.903,3.447,1.342
			c0.63,0.438,1.135,1.006,1.514,1.701c0.379,0.696,0.816,2.114,1.313,4.254c0.354,1.532,0.731,2.578,1.128,3.14
			c0.305,0.433,0.632,0.649,0.982,0.649c0.363,0,0.699-0.266,1.009-0.798s0.5-1.471,0.57-2.815h1.192
			c-0.222,3.976-1.689,5.964-4.402,5.964c-0.854,0-1.594-0.217-2.219-0.649c-0.626-0.433-1.097-1.07-1.412-1.912
			c-0.246-0.631-0.521-2.286-0.824-4.964c-0.176-1.555-0.453-2.66-0.834-3.315c-0.38-0.655-0.973-1.181-1.779-1.579
			c-0.808-0.397-1.772-0.596-2.895-0.596h-2.123v10.191c0,0.433,0.111,0.737,0.334,0.912c0.28,0.222,0.719,0.333,1.314,0.333h2.492
			v1.315H210.17v-1.315h2.543c0.562,0,0.974-0.111,1.236-0.333c0.264-0.222,0.395-0.526,0.395-0.912V-72.69
			c0-0.444-0.135-0.777-0.402-1c-0.27-0.222-0.68-0.333-1.229-0.333h-2.543V-75.339z M218.08-63.411h3.07
			c2.058,0,3.668-0.388,4.832-1.165s1.746-2.157,1.746-4.142c0-1.366-0.221-2.446-0.658-3.239c-0.439-0.794-1.016-1.337-1.729-1.629
			s-2.116-0.438-4.209-0.438c-1.381,0-2.234,0.097-2.562,0.289c-0.327,0.193-0.491,0.522-0.491,0.989V-63.411z"/>
		<path d="M289.625-73.375l1.578-2.263h1.281l0.105,9.455h-1.158c-0.725-2.9-1.798-5.017-3.219-6.35s-3.055-2-4.902-2
			c-1.544,0-2.807,0.462-3.789,1.387s-1.474,2.054-1.474,3.389c0,0.831,0.187,1.56,0.562,2.186c0.373,0.626,0.932,1.136,1.674,1.527
			c0.741,0.392,2.143,0.81,4.201,1.251c2.889,0.628,4.915,1.264,6.079,1.907c1.163,0.643,2.032,1.453,2.604,2.429
			c0.572,0.977,0.859,2.12,0.859,3.429c0,2.339-0.786,4.277-2.359,5.815c-1.572,1.538-3.604,2.307-6.096,2.307
			c-2.678,0-5.004-0.865-6.98-2.596l-1.982,2.421h-1.263v-10.051h1.263c0.491,2.771,1.59,4.958,3.298,6.561
			c1.707,1.602,3.631,2.403,5.771,2.403c1.73,0,3.143-0.511,4.236-1.535c1.094-1.023,1.641-2.266,1.641-3.728
			c0-0.83-0.205-1.558-0.614-2.184s-1.059-1.152-1.947-1.579s-2.637-0.944-5.245-1.553c-2.865-0.678-4.817-1.438-5.857-2.28
			c-1.463-1.192-2.193-2.882-2.193-5.069c0-2.28,0.729-4.148,2.184-5.604c1.456-1.456,3.318-2.184,5.587-2.184
			c1.088,0,2.122,0.193,3.104,0.579S288.572-74.274,289.625-73.375z"/>
		<path d="M305.131-75.339h11.365v1.315h-1.259c-1.05,0-1.731,0.082-2.047,0.246c-0.315,0.164-0.473,0.392-0.473,0.684
			c0,0.304,0.081,0.579,0.245,0.825l6.584,10.223l4.738-8.715c0.211-0.386,0.315-0.807,0.315-1.263c0-0.608-0.198-1.093-0.597-1.456
			c-0.397-0.362-0.965-0.544-1.701-0.544h-1.211v-1.315h9.894v1.315c-1.13,0-2.021,0.199-2.673,0.597s-1.281,1.146-1.887,2.245
			l-6,10.963v8.209c0,0.433,0.123,0.743,0.369,0.93c0.338,0.246,0.842,0.369,1.508,0.369h2.228v1.315h-11.91v-1.315h2.351
			c0.631,0,1.088-0.114,1.368-0.342s0.421-0.546,0.421-0.956v-7.981l-8.051-12.542c-0.352-0.538-0.761-0.915-1.229-1.131
			c-0.467-0.216-1.251-0.336-2.35-0.36V-75.339z"/>
		<path d="M356.945-73.375l1.578-2.263h1.281l0.105,9.455h-1.158c-0.725-2.9-1.798-5.017-3.219-6.35s-3.055-2-4.902-2
			c-1.544,0-2.807,0.462-3.789,1.387s-1.474,2.054-1.474,3.389c0,0.831,0.187,1.56,0.562,2.186c0.373,0.626,0.932,1.136,1.674,1.527
			c0.741,0.392,2.143,0.81,4.201,1.251c2.889,0.628,4.915,1.264,6.079,1.907c1.163,0.643,2.032,1.453,2.604,2.429
			c0.572,0.977,0.859,2.12,0.859,3.429c0,2.339-0.786,4.277-2.359,5.815c-1.572,1.538-3.604,2.307-6.096,2.307
			c-2.678,0-5.004-0.865-6.98-2.596l-1.982,2.421h-1.263v-10.051h1.263c0.491,2.771,1.59,4.958,3.298,6.561
			c1.707,1.602,3.631,2.403,5.771,2.403c1.73,0,3.143-0.511,4.236-1.535c1.094-1.023,1.641-2.266,1.641-3.728
			c0-0.83-0.205-1.558-0.614-2.184s-1.059-1.152-1.947-1.579s-2.637-0.944-5.245-1.553c-2.865-0.678-4.817-1.438-5.857-2.28
			c-1.463-1.192-2.193-2.882-2.193-5.069c0-2.28,0.729-4.148,2.184-5.604c1.456-1.456,3.318-2.184,5.587-2.184
			c1.088,0,2.122,0.193,3.104,0.579S355.893-74.274,356.945-73.375z"/>
		<path d="M374.24-75.339h21.066l0.508,9.805h-1.21c-0.797-5.765-2.884-8.647-6.258-8.647c-0.68,0-1.146,0.117-1.397,0.351
			c-0.252,0.234-0.379,0.62-0.379,1.158v20.733c0,0.421,0.123,0.731,0.369,0.93c0.246,0.199,0.648,0.298,1.211,0.298h2.613v1.315
			h-12.051v-1.315h2.982c0.396,0,0.701-0.099,0.912-0.298c0.21-0.199,0.314-0.462,0.314-0.79v-21.031
			c0-0.444-0.134-0.781-0.402-1.009c-0.27-0.228-0.702-0.342-1.299-0.342c-1.695,0-3.11,0.801-4.244,2.403
			c-0.936,1.322-1.608,3.403-2.018,6.245h-1.28L374.24-75.339z"/>
		<path d="M408.672-75.339h20.558l0.491,8.753h-1.176c-0.467-2.76-1.205-4.689-2.215-5.789c-1.011-1.099-2.327-1.649-3.95-1.649
			h-5.079c-0.41,0-0.719,0.111-0.93,0.333c-0.209,0.222-0.314,0.561-0.314,1.017v9.244h2.221c1.189,0,2.154-0.427,2.896-1.28
			s1.14-2.164,1.198-3.929h1.211v12.015h-1.211c-0.059-1.988-0.464-3.412-1.216-4.271s-1.775-1.289-3.069-1.289h-2.029v10.314
			c0,0.375,0.125,0.661,0.377,0.859c0.25,0.199,0.668,0.298,1.252,0.298h4.012c4.355,0,6.867-2.783,7.532-8.35h1.263l-0.438,9.665
			h-21.383v-1.315h1.771c0.689,0,1.176-0.12,1.456-0.36c0.28-0.239,0.421-0.587,0.421-1.043v-20.558
			c0-0.456-0.123-0.795-0.369-1.017c-0.244-0.222-0.631-0.333-1.156-0.333h-2.123V-75.339z"/>
		<path d="M442.56-75.339h8.638l7.754,20.488l7.137-20.488h8.834v1.315h-2.156c-0.761,0-1.272,0.111-1.535,0.333
			c-0.264,0.222-0.395,0.608-0.395,1.158v20.54c0,0.41,0.158,0.726,0.473,0.947c0.316,0.222,0.859,0.333,1.632,0.333h1.981v1.315
			h-11.875v-1.315h2.221c0.634,0,1.104-0.12,1.408-0.36c0.307-0.239,0.459-0.546,0.459-0.921v-22.031l-8.578,24.627h-1.182
			l-9.237-24.522v18.856c0,1.123,0.14,1.962,0.421,2.517s0.682,0.982,1.201,1.28c0.521,0.298,1.383,0.482,2.588,0.553v1.315h-9.788
			v-1.315c1.603-0.105,2.689-0.45,3.263-1.035c0.572-0.584,0.859-1.62,0.859-3.104v-17.892c0-0.444-0.135-0.769-0.403-0.974
			s-0.771-0.307-1.509-0.307h-2.21V-75.339z"/>
		<path d="M502.181-73.375l1.579-2.263h1.279l0.105,9.455h-1.157c-0.726-2.9-1.798-5.017-3.219-6.35s-3.056-2-4.903-2
			c-1.543,0-2.807,0.462-3.788,1.387c-0.982,0.925-1.474,2.054-1.474,3.389c0,0.831,0.188,1.56,0.561,2.186
			c0.374,0.626,0.932,1.136,1.674,1.527c0.742,0.392,2.143,0.81,4.201,1.251c2.891,0.628,4.916,1.264,6.08,1.907
			c1.163,0.643,2.031,1.453,2.604,2.429c0.573,0.977,0.859,2.12,0.859,3.429c0,2.339-0.786,4.277-2.358,5.815
			c-1.574,1.538-3.605,2.307-6.096,2.307c-2.678,0-5.006-0.865-6.981-2.596l-1.982,2.421h-1.263v-10.051h1.263
			c0.491,2.771,1.591,4.958,3.298,6.561s3.631,2.403,5.771,2.403c1.73,0,3.143-0.511,4.235-1.535c1.093-1.023,1.64-2.266,1.64-3.728
			c0-0.83-0.204-1.558-0.613-2.184c-0.41-0.625-1.059-1.152-1.947-1.579s-2.637-0.944-5.244-1.553
			c-2.865-0.678-4.818-1.438-5.859-2.28c-1.461-1.192-2.192-2.882-2.192-5.069c0-2.28,0.728-4.148,2.185-5.604
			c1.455-1.456,3.317-2.184,5.586-2.184c1.088,0,2.123,0.193,3.105,0.579S501.128-74.274,502.181-73.375z"/>
	</g>
</g>
<g>
	<g>
		<path d="M-551.221-99.293v15.745c-4.913-3.516-9.334-5.274-13.263-5.274c-4.24,0-7.705,1.5-10.393,4.499
			c-2.689,2.844-4.033,6.645-4.033,11.401c0,4.188,0.956,7.783,2.87,10.781c0.982,1.604,2.599,3.672,4.848,6.205
			c2.25,2.534,5.158,5.584,8.726,9.152c6.566,6.67,11.039,12.436,13.418,17.296c2.378,4.706,3.568,10.471,3.568,17.296
			c0,9.256-2.611,16.883-7.833,22.881c-5.223,5.844-11.919,8.764-20.088,8.764c-6.877,0-12.747-1.887-17.606-5.662V-2.187
			c5.74,4.188,10.961,6.283,15.667,6.283c4.394,0,7.833-1.46,10.315-4.382c2.482-2.92,3.723-6.89,3.723-11.906
			c0-4.343-0.958-8.247-2.87-11.711c-0.983-1.654-2.354-3.555-4.111-5.701c-1.759-2.145-3.956-4.538-6.593-7.174
			c-4.085-4.033-7.473-7.601-10.161-10.704c-2.689-3.103-4.68-5.817-5.972-8.144c-2.482-4.549-3.723-10.289-3.723-17.218
			c0-9.358,2.43-16.779,7.291-22.26c4.912-5.532,11.504-8.299,19.778-8.299C-561.924-103.404-556.444-102.033-551.221-99.293z"/>
		<path d="M-462.423-38.951c0,21.148-2.354,36.17-7.058,45.063c-4.706,8.894-12.592,13.34-23.656,13.34
			c-11.634,0-19.83-4.782-24.587-14.349c-4.706-9.358-7.058-25.983-7.058-49.872c0-21.302,2.327-36.376,6.98-45.218
			c4.705-8.893,12.668-13.34,23.889-13.34c10.031,0,17.477,3.439,22.337,10.315c3.206,4.603,5.532,11.143,6.98,19.623
			C-463.148-65.527-462.423-54.048-462.423-38.951z M-479.332-37.245c0-20.734-0.931-34.488-2.792-41.262
			c-1.861-6.825-5.662-10.238-11.401-10.238c-5.74,0-9.567,3.129-11.479,9.385c-1.861,6.309-2.792,18.977-2.792,38.005
			c0,17.529,0.982,29.68,2.947,36.454c2.017,6.412,5.791,9.618,11.324,9.618c5.429,0,9.152-2.999,11.169-8.997
			C-480.34-10.227-479.332-21.215-479.332-37.245z"/>
		<path d="M-436.915-101.775h16.132V4.328h26.371v13.651h-42.503V-101.775z"/>
		<path d="M-351.375-101.775h12.565l25.673,119.754h-15.978l-4.499-23.346h-23.734l-4.576,23.346h-15.512L-351.375-101.775z
			 M-335.939-17.854l-3.568-19.08c-2.379-12.978-4.318-26.836-5.817-41.573c-0.725,7.188-1.655,14.465-2.792,21.833
			c-1.138,7.368-2.482,15.19-4.033,23.462l-2.947,15.357H-335.939z"/>
		<path d="M-294.143-101.775h21.251c8.79,0,15.331,2.094,19.623,6.283c5.429,5.429,8.144,13.728,8.144,24.897
			c0,8.584-1.435,15.474-4.305,20.67c-2.87,5.197-6.969,8.416-12.293,9.656l22.027,58.249h-16.366l-21.95-58.636v58.636h-16.132
			V-101.775z M-278.011-48.724c6.256,0,10.677-1.447,13.263-4.343c2.585-2.895,3.878-7.782,3.878-14.659
			c0-3.723-0.271-6.903-0.814-9.54c-0.543-2.637-1.396-4.782-2.56-6.438c-1.163-1.654-2.664-2.87-4.499-3.645
			c-1.836-0.776-4.021-1.164-6.554-1.164h-2.715V-48.724z"/>
		<path d="M-217.677-101.775h16.132V17.979h-16.132V-101.775z"/>
		<path d="M-133.611-99.293v15.745c-4.913-3.516-9.334-5.274-13.263-5.274c-4.24,0-7.705,1.5-10.393,4.499
			c-2.689,2.844-4.033,6.645-4.033,11.401c0,4.188,0.956,7.783,2.87,10.781c0.982,1.604,2.599,3.672,4.848,6.205
			c2.25,2.534,5.158,5.584,8.726,9.152c6.566,6.67,11.039,12.436,13.418,17.296c2.378,4.706,3.568,10.471,3.568,17.296
			c0,9.256-2.611,16.883-7.833,22.881c-5.223,5.844-11.919,8.764-20.088,8.764c-6.877,0-12.747-1.887-17.606-5.662V-2.187
			c5.74,4.188,10.961,6.283,15.667,6.283c4.394,0,7.833-1.46,10.315-4.382c2.482-2.92,3.723-6.89,3.723-11.906
			c0-4.343-0.958-8.247-2.87-11.711c-0.983-1.654-2.354-3.555-4.111-5.701c-1.759-2.145-3.956-4.538-6.593-7.174
			c-4.085-4.033-7.473-7.601-10.161-10.704c-2.689-3.103-4.68-5.817-5.972-8.144c-2.482-4.549-3.723-10.289-3.723-17.218
			c0-9.358,2.43-16.779,7.291-22.26c4.912-5.532,11.504-8.299,19.778-8.299C-144.314-103.404-138.834-102.033-133.611-99.293z"/>
	</g>
	<g>
		<path d="M-586.072,38.219h12.798c2.891,0,5.097,0.655,6.618,1.964c1.521,1.31,2.282,3.023,2.282,5.14
			c0,2.117-0.701,3.73-2.102,4.841c-1.927,1.532-4.304,2.298-7.13,2.298h-4.625v8.858c0,0.515,0.123,0.883,0.368,1.105
			c0.327,0.28,0.766,0.421,1.315,0.421h2.947v1.315h-12.472v-1.315h2.607c0.517,0,0.895-0.103,1.136-0.307s0.361-0.482,0.361-0.833
			V41.025c0-0.526-0.153-0.906-0.458-1.14s-0.881-0.351-1.727-0.351h-1.92V38.219z M-578.231,51.182h3.52
			c2.229,0,3.837-0.465,4.824-1.395c0.986-0.93,1.479-2.465,1.479-4.604c0-1.497-0.222-2.646-0.666-3.447s-1.094-1.395-1.952-1.781
			c-0.858-0.386-2.268-0.579-4.229-0.579c-1.296,0-2.116,0.123-2.46,0.368s-0.516,0.673-0.516,1.281V51.182z"/>
		<path d="M-540.046,37.675c2.187,0,4.236,0.576,6.148,1.728c1.912,1.152,3.409,2.76,4.491,4.824
			c1.082,2.064,1.623,4.388,1.623,6.972c0,2.585-0.544,4.917-1.631,6.999s-2.582,3.704-4.482,4.868s-3.915,1.745-6.042,1.745
			c-2.082,0-4.035-0.57-5.859-1.71s-3.289-2.771-4.394-4.894s-1.657-4.476-1.657-7.06c0-2.549,0.535-4.85,1.605-6.902
			c1.07-2.052,2.534-3.66,4.394-4.824S-542.057,37.675-540.046,37.675z M-539.765,39.025c-2.28,0-4.128,0.947-5.543,2.842
			c-1.415,1.895-2.123,4.981-2.123,9.262c0,4.643,0.725,7.853,2.175,9.63c1.45,1.777,3.245,2.666,5.385,2.666
			c1.497,0,2.812-0.403,3.947-1.21c1.134-0.807,2.038-2.087,2.71-3.841c0.672-1.754,1.009-4.058,1.009-6.911
			c0-3.11-0.316-5.54-0.947-7.288c-0.631-1.748-1.532-3.043-2.701-3.885C-537.023,39.447-538.327,39.025-539.765,39.025z"/>
		<path d="M-515.542,38.219h8.666v1.315h-0.612c-0.909,0-1.489,0.07-1.74,0.21c-0.251,0.141-0.376,0.363-0.376,0.667
			c0,0.211,0.088,0.544,0.263,1l0.105,0.333l5.28,16.471l4.635-15.214c-0.541-1.728-0.954-2.738-1.24-3.029
			c-0.286-0.292-0.854-0.438-1.706-0.438h-1.575v-1.315h10.823v1.315h-1.122c-0.981,0-1.618,0.079-1.91,0.237
			c-0.292,0.158-0.438,0.395-0.438,0.71c0,0.246,0.035,0.474,0.105,0.684l5.373,17.05l4.424-14.752
			c0.175-0.573,0.263-1.123,0.263-1.649c0-0.783-0.178-1.359-0.535-1.728c-0.356-0.369-0.89-0.553-1.602-0.553h-0.806v-1.315h8.139
			v1.315c-0.714,0.094-1.281,0.266-1.703,0.518s-0.787,0.611-1.097,1.079c-0.31,0.468-0.623,1.246-0.939,2.333l-6.393,21.312h-1.249
			l-5.967-19.065l-5.693,19.065h-1.314l-7.305-23.031c-0.293-0.9-0.624-1.494-0.992-1.781c-0.369-0.286-0.957-0.43-1.764-0.43
			V38.219z"/>
		<path d="M-468.867,38.219h20.558l0.491,8.753h-1.175c-0.467-2.76-1.206-4.689-2.216-5.789s-2.327-1.649-3.95-1.649h-5.08
			c-0.409,0-0.718,0.111-0.929,0.333c-0.21,0.222-0.315,0.561-0.315,1.017v9.244h2.221c1.189,0,2.154-0.427,2.895-1.28
			s1.14-2.164,1.198-3.929h1.21v12.015h-1.21c-0.058-1.988-0.464-3.412-1.216-4.271s-1.775-1.289-3.07-1.289h-2.029v10.314
			c0,0.375,0.125,0.661,0.376,0.859c0.251,0.199,0.668,0.298,1.252,0.298h4.012c4.356,0,6.867-2.783,7.532-8.35h1.263l-0.438,9.665
			h-21.382v-1.315h1.771c0.69,0,1.175-0.12,1.456-0.36c0.28-0.239,0.421-0.587,0.421-1.043V40.885c0-0.456-0.123-0.795-0.369-1.017
			c-0.245-0.222-0.631-0.333-1.157-0.333h-2.123V38.219z"/>
		<path d="M-434.663,38.219h13.401c2.596,0,4.61,0.591,6.042,1.771c1.433,1.182,2.149,2.731,2.149,4.648
			c0,1.146-0.284,2.167-0.851,3.061c-0.567,0.895-1.386,1.608-2.456,2.14c-1.07,0.532-2.751,0.916-5.043,1.149
			c1.668,0.456,2.817,0.903,3.447,1.342c0.63,0.438,1.134,1.006,1.514,1.701c0.379,0.696,0.817,2.114,1.313,4.254
			c0.355,1.532,0.731,2.578,1.128,3.14c0.304,0.433,0.631,0.649,0.982,0.649c0.362,0,0.699-0.266,1.008-0.798
			c0.31-0.532,0.5-1.471,0.57-2.815h1.193c-0.222,3.976-1.69,5.964-4.403,5.964c-0.854,0-1.594-0.217-2.219-0.649
			c-0.626-0.433-1.097-1.07-1.412-1.912c-0.246-0.631-0.521-2.286-0.825-4.964c-0.175-1.555-0.453-2.66-0.833-3.315
			c-0.38-0.655-0.974-1.181-1.78-1.579c-0.807-0.397-1.772-0.596-2.895-0.596h-2.122v10.191c0,0.433,0.111,0.737,0.333,0.912
			c0.281,0.222,0.719,0.333,1.315,0.333h2.491v1.315h-12.051v-1.315h2.543c0.562,0,0.974-0.111,1.237-0.333
			c0.263-0.222,0.395-0.526,0.395-0.912V40.867c0-0.444-0.135-0.777-0.403-1c-0.27-0.222-0.679-0.333-1.228-0.333h-2.543V38.219z
			 M-426.751,50.146h3.069c2.058,0,3.669-0.388,4.833-1.165s1.746-2.157,1.746-4.142c0-1.366-0.22-2.446-0.658-3.239
			c-0.438-0.794-1.015-1.337-1.728-1.629c-0.713-0.292-2.117-0.438-4.21-0.438c-1.38,0-2.233,0.097-2.561,0.289
			c-0.327,0.193-0.491,0.522-0.491,0.989V50.146z"/>
		<path d="M-355.207,40.183l1.579-2.263h1.28l0.105,9.455h-1.158c-0.725-2.9-1.798-5.017-3.219-6.35s-3.055-2-4.903-2
			c-1.543,0-2.807,0.462-3.789,1.387c-0.982,0.925-1.474,2.054-1.474,3.389c0,0.831,0.187,1.56,0.561,2.186
			c0.374,0.626,0.932,1.136,1.674,1.527c0.742,0.392,2.143,0.81,4.201,1.251c2.89,0.628,4.916,1.264,6.08,1.907
			c1.163,0.643,2.032,1.453,2.604,2.429c0.573,0.977,0.859,2.12,0.859,3.429c0,2.339-0.786,4.277-2.359,5.815
			c-1.573,1.538-3.605,2.307-6.096,2.307c-2.678,0-5.005-0.865-6.981-2.596l-1.982,2.421h-1.263V54.426h1.263
			c0.491,2.771,1.59,4.958,3.298,6.561c1.707,1.602,3.631,2.403,5.771,2.403c1.73,0,3.143-0.511,4.236-1.535
			c1.093-1.023,1.64-2.266,1.64-3.728c0-0.83-0.205-1.558-0.614-2.184c-0.41-0.625-1.059-1.152-1.947-1.579
			s-2.637-0.944-5.245-1.553c-2.865-0.678-4.818-1.438-5.858-2.28c-1.462-1.192-2.193-2.882-2.193-5.069
			c0-2.28,0.728-4.148,2.184-5.604c1.456-1.456,3.318-2.184,5.586-2.184c1.088,0,2.123,0.193,3.105,0.579
			S-356.26,39.283-355.207,40.183z"/>
		<path d="M-339.702,38.219h11.366v1.315h-1.259c-1.05,0-1.732,0.082-2.047,0.246c-0.315,0.164-0.473,0.392-0.473,0.684
			c0,0.304,0.082,0.579,0.246,0.825l6.583,10.223l4.738-8.715c0.211-0.386,0.316-0.807,0.316-1.263c0-0.608-0.199-1.093-0.596-1.456
			c-0.398-0.362-0.965-0.544-1.702-0.544h-1.21v-1.315h9.893v1.315c-1.129,0-2.021,0.199-2.673,0.597
			c-0.652,0.397-1.281,1.146-1.886,2.245l-6,10.963v8.209c0,0.433,0.123,0.743,0.369,0.93c0.339,0.246,0.842,0.369,1.508,0.369
			h2.228v1.315h-11.91v-1.315h2.351c0.631,0,1.087-0.114,1.368-0.342s0.421-0.546,0.421-0.956v-7.981l-8.051-12.542
			c-0.351-0.538-0.76-0.915-1.228-1.131c-0.468-0.216-1.251-0.336-2.351-0.36V38.219z"/>
		<path d="M-287.887,40.183l1.579-2.263h1.28l0.105,9.455h-1.158c-0.725-2.9-1.798-5.017-3.219-6.35s-3.055-2-4.903-2
			c-1.543,0-2.807,0.462-3.789,1.387c-0.982,0.925-1.474,2.054-1.474,3.389c0,0.831,0.187,1.56,0.561,2.186
			c0.374,0.626,0.932,1.136,1.674,1.527c0.742,0.392,2.143,0.81,4.201,1.251c2.89,0.628,4.916,1.264,6.08,1.907
			c1.163,0.643,2.032,1.453,2.604,2.429c0.573,0.977,0.859,2.12,0.859,3.429c0,2.339-0.786,4.277-2.359,5.815
			c-1.573,1.538-3.605,2.307-6.096,2.307c-2.678,0-5.005-0.865-6.981-2.596l-1.982,2.421h-1.263V54.426h1.263
			c0.491,2.771,1.59,4.958,3.298,6.561c1.707,1.602,3.631,2.403,5.771,2.403c1.73,0,3.143-0.511,4.236-1.535
			c1.093-1.023,1.64-2.266,1.64-3.728c0-0.83-0.205-1.558-0.614-2.184c-0.41-0.625-1.059-1.152-1.947-1.579
			s-2.637-0.944-5.245-1.553c-2.865-0.678-4.818-1.438-5.858-2.28c-1.462-1.192-2.193-2.882-2.193-5.069
			c0-2.28,0.728-4.148,2.184-5.604c1.456-1.456,3.318-2.184,5.586-2.184c1.088,0,2.123,0.193,3.105,0.579
			S-288.939,39.283-287.887,40.183z"/>
		<path d="M-270.592,38.219h21.066l0.509,9.805h-1.21c-0.797-5.765-2.883-8.647-6.258-8.647c-0.68,0-1.146,0.117-1.398,0.351
			c-0.252,0.234-0.378,0.62-0.378,1.158v20.733c0,0.421,0.123,0.731,0.369,0.93c0.246,0.199,0.649,0.298,1.21,0.298h2.613v1.315
			h-12.05v-1.315h2.982c0.397,0,0.702-0.099,0.912-0.298c0.21-0.199,0.315-0.462,0.315-0.79V40.727c0-0.444-0.134-0.781-0.403-1.009
			s-0.702-0.342-1.298-0.342c-1.696,0-3.111,0.801-4.245,2.403c-0.936,1.322-1.608,3.403-2.017,6.245h-1.28L-270.592,38.219z"/>
		<path d="M-236.16,38.219h20.558l0.491,8.753h-1.175c-0.467-2.76-1.206-4.689-2.216-5.789s-2.327-1.649-3.95-1.649h-5.08
			c-0.409,0-0.718,0.111-0.929,0.333c-0.21,0.222-0.315,0.561-0.315,1.017v9.244h2.221c1.189,0,2.154-0.427,2.895-1.28
			s1.14-2.164,1.198-3.929h1.21v12.015h-1.21c-0.058-1.988-0.464-3.412-1.216-4.271s-1.775-1.289-3.07-1.289h-2.029v10.314
			c0,0.375,0.125,0.661,0.376,0.859c0.251,0.199,0.668,0.298,1.252,0.298h4.012c4.356,0,6.867-2.783,7.532-8.35h1.263l-0.438,9.665
			h-21.382v-1.315h1.771c0.69,0,1.175-0.12,1.456-0.36c0.28-0.239,0.421-0.587,0.421-1.043V40.885c0-0.456-0.123-0.795-0.369-1.017
			c-0.245-0.222-0.631-0.333-1.157-0.333h-2.123V38.219z"/>
		<path d="M-202.272,38.219h8.638l7.754,20.488l7.136-20.488h8.835v1.315h-2.157c-0.76,0-1.272,0.111-1.535,0.333
			c-0.263,0.222-0.395,0.608-0.395,1.158v20.54c0,0.41,0.158,0.726,0.474,0.947c0.316,0.222,0.859,0.333,1.631,0.333h1.982v1.315
			h-11.875v-1.315h2.22c0.634,0,1.104-0.12,1.409-0.36c0.306-0.239,0.458-0.546,0.458-0.921V39.534l-8.578,24.627h-1.182
			l-9.237-24.522v18.856c0,1.123,0.14,1.962,0.421,2.517s0.681,0.982,1.202,1.28c0.52,0.298,1.383,0.482,2.587,0.553v1.315h-9.788
			v-1.315c1.602-0.105,2.689-0.45,3.263-1.035c0.573-0.584,0.859-1.62,0.859-3.104V40.815c0-0.444-0.134-0.769-0.403-0.974
			s-0.771-0.307-1.508-0.307h-2.21V38.219z"/>
		<path d="M-142.651,40.183l1.579-2.263h1.28l0.105,9.455h-1.158c-0.725-2.9-1.798-5.017-3.219-6.35s-3.055-2-4.903-2
			c-1.543,0-2.807,0.462-3.789,1.387c-0.982,0.925-1.474,2.054-1.474,3.389c0,0.831,0.187,1.56,0.561,2.186
			c0.374,0.626,0.932,1.136,1.674,1.527c0.742,0.392,2.143,0.81,4.201,1.251c2.89,0.628,4.916,1.264,6.08,1.907
			c1.163,0.643,2.032,1.453,2.604,2.429c0.573,0.977,0.859,2.12,0.859,3.429c0,2.339-0.786,4.277-2.359,5.815
			c-1.573,1.538-3.605,2.307-6.096,2.307c-2.678,0-5.005-0.865-6.981-2.596l-1.982,2.421h-1.263V54.426h1.263
			c0.491,2.771,1.59,4.958,3.298,6.561c1.707,1.602,3.631,2.403,5.771,2.403c1.73,0,3.143-0.511,4.236-1.535
			c1.093-1.023,1.64-2.266,1.64-3.728c0-0.83-0.205-1.558-0.614-2.184c-0.41-0.625-1.059-1.152-1.947-1.579
			s-2.637-0.944-5.245-1.553c-2.865-0.678-4.818-1.438-5.858-2.28c-1.462-1.192-2.193-2.882-2.193-5.069
			c0-2.28,0.728-4.148,2.184-5.604c1.456-1.456,3.318-2.184,5.586-2.184c1.088,0,2.123,0.193,3.105,0.579
			S-143.704,39.283-142.651,40.183z"/>
	</g>
</g>
<g>
	<polygon fill="#C4960C" points="-133.475,-109.473 -38.264,-191.958 -120.746,-96.745 	"/>
</g>
<g>
	<polygon fill="#C4960C" points="-117.424,-79.052 -47.458,-75.932 -117.155,-69.056 	"/>
</g>
<g>
	<polygon fill="#C4960C" points="-155.491,-116.223 -152.203,-179.924 -145.495,-116.491 	"/>
</g>
<g>
	<path fill="#C4960C" d="M-745.98-142.864c4.114,1.737,8.023,3.86,11.681,6.325c3.659,2.467,7.066,5.273,10.177,8.378
		c3.111,3.104,5.925,6.502,8.397,10.152c2.472,3.649,4.6,7.548,6.34,11.652c1.739,4.104,3.091,8.41,4.006,12.877
		c0.917,4.465,1.397,9.09,1.397,13.826s-0.479,9.359-1.397,13.826c-0.915,4.465-2.267,8.773-4.006,12.877
		c-1.741,4.104-3.869,8.003-6.34,11.652c-2.472,3.65-5.286,7.049-8.397,10.154c-3.111,3.102-6.519,5.911-10.177,8.376
		c-3.658,2.465-7.567,4.59-11.681,6.324c-4.113,1.736-8.431,3.083-12.909,3.998c-4.475,0.914-9.111,1.393-13.857,1.393
		c-4.748,0-9.383-0.479-13.859-1.393c-4.476-0.915-8.793-2.262-12.909-3.998c-4.114-1.734-8.023-3.859-11.68-6.324
		c-3.66-2.465-7.066-5.274-10.177-8.376c-3.112-3.105-5.926-6.504-8.398-10.154c-2.471-3.649-4.6-7.548-6.339-11.652
		c-1.74-4.104-3.092-8.412-4.007-12.877c-0.917-4.466-1.398-9.09-1.398-13.826s0.48-9.361,1.398-13.826
		c0.915-4.467,2.267-8.773,4.007-12.877c1.739-4.104,3.869-8.003,6.339-11.652c2.472-3.65,5.286-7.049,8.398-10.152
		c3.111-3.105,6.518-5.911,10.177-8.378c3.657-2.465,7.566-4.588,11.68-6.325l7.53,17.673c-2.957,1.25-5.767,2.78-8.395,4.556
		c-2.63,1.777-5.079,3.8-7.314,6.036c-2.238,2.235-4.259,4.684-6.036,7.314c-1.775,2.629-3.306,5.438-4.557,8.394
		c-1.25,2.958-2.221,6.06-2.879,9.277c-0.658,3.217-1.006,6.548-1.006,9.96c0,3.413,0.348,6.743,1.006,9.961
		c0.658,3.218,1.629,6.32,2.879,9.276c1.251,2.958,2.781,5.767,4.557,8.396c1.777,2.629,3.798,5.078,6.036,7.314
		c2.235,2.236,4.684,4.259,7.314,6.036c2.628,1.774,5.438,3.305,8.395,4.556c2.958,1.25,6.06,2.221,9.276,2.881
		c3.218,0.657,6.55,1.003,9.961,1.003s6.743-0.346,9.961-1.003c3.217-0.66,6.32-1.631,9.276-2.881
		c2.955-1.251,5.767-2.781,8.396-4.556c2.629-1.777,5.078-3.799,7.313-6.036c2.238-2.236,4.259-4.686,6.036-7.314
		c1.777-2.629,3.308-5.438,4.557-8.396c1.25-2.956,2.221-6.058,2.881-9.276c0.658-3.218,1.004-6.548,1.004-9.961
		c0-3.412-0.346-6.743-1.004-9.96c-0.66-3.218-1.631-6.32-2.881-9.277c-1.25-2.957-2.78-5.765-4.557-8.394
		c-1.777-2.63-3.798-5.08-6.036-7.314c-2.235-2.236-4.684-4.259-7.313-6.036c-2.629-1.775-5.44-3.306-8.396-4.556L-745.98-142.864z"
		/>
	<polygon fill="#C4960C" points="-638.807,-79.377 -694.774,-74.916 -694.774,-83.84 	"/>
	<polygon fill="#C4960C" points="-772.747,54.498 -777.208,-1.404 -768.286,-1.404 	"/>
	<polygon fill="#C4960C" points="-906.622,-79.377 -850.719,-84.102 -850.719,-75.179 	"/>
	<rect x="-781.352" y="-180.384" fill="#C4960C" width="17.21" height="93.534"/>
	<polygon fill="#C4960C" points="-693.015,-158.539 -714.231,-131.013 -720.54,-137.323 	"/>
	<polygon fill="#C4960C" points="-693.014,0 -720.54,-21.217 -714.231,-27.525 	"/>
	<polygon fill="#C4960C" points="-852.241,0 -831.025,-27.525 -824.715,-21.217 	"/>
	<polygon fill="#C4960C" points="-852.785,-158.538 -825.259,-137.323 -831.569,-131.013 	"/>
</g>
<g>
	<path d="M195.567,94.682c3.192,1.348,6.226,2.995,9.064,4.908c2.839,1.914,5.483,4.092,7.897,6.501
		c2.414,2.408,4.598,5.046,6.516,7.878s3.569,5.857,4.92,9.042c1.35,3.185,2.398,6.526,3.108,9.992
		c0.712,3.465,1.084,7.054,1.084,10.729s-0.372,7.263-1.084,10.729c-0.71,3.465-1.759,6.808-3.108,9.992
		c-1.351,3.185-3.002,6.21-4.92,9.042s-4.102,5.47-6.516,7.879c-2.414,2.407-5.059,4.587-7.897,6.5s-5.872,3.562-9.064,4.907
		c-3.191,1.348-6.542,2.393-10.017,3.103c-3.473,0.709-7.07,1.081-10.753,1.081c-3.685,0-7.281-0.372-10.755-1.081
		c-3.473-0.71-6.823-1.755-10.017-3.103c-3.192-1.346-6.226-2.994-9.063-4.907c-2.84-1.913-5.483-4.093-7.897-6.5
		c-2.415-2.409-4.599-5.047-6.517-7.879c-1.917-2.832-3.569-5.857-4.919-9.042c-1.351-3.185-2.399-6.527-3.109-9.992
		c-0.712-3.466-1.085-7.054-1.085-10.729s0.373-7.264,1.085-10.729c0.71-3.466,1.759-6.808,3.109-9.992
		c1.35-3.185,3.002-6.21,4.919-9.042c1.918-2.832,4.102-5.47,6.517-7.878c2.414-2.409,5.058-4.587,7.897-6.501
		c2.838-1.913,5.871-3.561,9.063-4.908l5.843,13.714c-2.294,0.97-4.475,2.157-6.514,3.535c-2.041,1.379-3.941,2.948-5.676,4.684
		c-1.736,1.734-3.305,3.635-4.684,5.676c-1.378,2.04-2.565,4.22-3.536,6.514c-0.97,2.295-1.724,4.702-2.234,7.199
		c-0.511,2.496-0.78,5.081-0.78,7.729c0,2.648,0.27,5.232,0.78,7.729s1.265,4.904,2.234,7.198c0.971,2.295,2.158,4.475,3.536,6.515
		c1.379,2.04,2.947,3.94,4.684,5.676c1.734,1.735,3.635,3.305,5.676,4.684c2.039,1.377,4.22,2.564,6.514,3.535
		c2.295,0.97,4.702,1.724,7.198,2.235c2.497,0.51,5.083,0.778,7.729,0.778s5.232-0.269,7.729-0.778
		c2.496-0.512,4.904-1.266,7.198-2.235c2.293-0.971,4.475-2.158,6.515-3.535c2.04-1.379,3.94-2.948,5.675-4.684
		c1.736-1.735,3.305-3.636,4.684-5.676s2.566-4.22,3.536-6.515c0.97-2.294,1.724-4.701,2.235-7.198
		c0.511-2.497,0.779-5.081,0.779-7.729c0-2.647-0.269-5.232-0.779-7.729c-0.512-2.497-1.266-4.904-2.235-7.199
		c-0.97-2.294-2.157-4.474-3.536-6.514c-1.379-2.041-2.947-3.941-4.684-5.676c-1.734-1.735-3.635-3.305-5.675-4.684
		c-2.04-1.378-4.222-2.565-6.515-3.535L195.567,94.682z"/>
	<polygon points="278.731,143.947 235.302,147.409 235.302,140.484 	"/>
	<polygon points="174.797,247.831 171.335,204.452 178.259,204.452 	"/>
	<polygon points="70.914,143.947 114.293,140.281 114.293,147.205 	"/>
	<rect x="168.12" y="65.568" width="13.354" height="72.58"/>
	<polygon points="236.667,82.519 220.204,103.878 215.309,98.982 	"/>
	<polygon points="236.668,205.542 215.309,189.078 220.204,184.182 	"/>
	<polygon points="113.111,205.542 129.574,184.182 134.471,189.078 	"/>
	<polygon points="112.689,82.52 134.049,98.982 129.152,103.878 	"/>
</g>
<g>
	<g>
		<path d="M324.819,78.312v15.745c-4.913-3.516-9.334-5.274-13.263-5.274c-4.24,0-7.705,1.5-10.394,4.499
			c-2.688,2.844-4.033,6.645-4.033,11.401c0,4.188,0.956,7.783,2.87,10.781c0.981,1.604,2.598,3.672,4.848,6.205
			c2.249,2.534,5.157,5.584,8.725,9.152c6.566,6.67,11.039,12.436,13.418,17.296c2.379,4.706,3.568,10.471,3.568,17.296
			c0,9.256-2.611,16.883-7.834,22.881c-5.223,5.844-11.918,8.764-20.088,8.764c-6.877,0-12.746-1.887-17.606-5.662v-15.978
			c5.739,4.188,10.962,6.283,15.667,6.283c4.395,0,7.834-1.46,10.316-4.382c2.481-2.92,3.723-6.89,3.723-11.906
			c0-4.343-0.957-8.247-2.869-11.711c-0.983-1.654-2.354-3.555-4.111-5.701c-1.759-2.145-3.955-4.538-6.593-7.174
			c-4.085-4.033-7.473-7.601-10.161-10.704s-4.68-5.817-5.972-8.144c-2.481-4.549-3.723-10.289-3.723-17.218
			c0-9.358,2.43-16.779,7.29-22.26c4.912-5.532,11.505-8.299,19.779-8.299C314.115,74.201,319.596,75.571,324.819,78.312z"/>
		<path d="M413.617,138.654c0,21.148-2.354,36.17-7.059,45.063c-4.705,8.894-12.592,13.34-23.656,13.34
			c-11.634,0-19.83-4.782-24.586-14.349c-4.706-9.358-7.059-25.983-7.059-49.872c0-21.302,2.327-36.376,6.98-45.218
			c4.705-8.893,12.668-13.34,23.889-13.34c10.031,0,17.477,3.439,22.338,10.315c3.205,4.603,5.532,11.143,6.98,19.623
			C412.893,112.077,413.617,123.556,413.617,138.654z M396.709,140.36c0-20.734-0.932-34.488-2.793-41.262
			c-1.861-6.825-5.662-10.238-11.4-10.238c-5.74,0-9.567,3.129-11.479,9.385c-1.861,6.309-2.792,18.977-2.792,38.005
			c0,17.529,0.981,29.68,2.947,36.454c2.016,6.412,5.79,9.618,11.324,9.618c5.429,0,9.152-2.999,11.168-8.997
			C395.7,167.378,396.709,156.39,396.709,140.36z"/>
		<path d="M439.125,75.829h16.133v106.104h26.371v13.651h-42.504V75.829z"/>
		<path d="M524.666,75.829h12.564l25.673,119.754h-15.978l-4.498-23.346h-23.734l-4.576,23.346h-15.512L524.666,75.829z
			 M540.101,159.75l-3.567-19.08c-2.379-12.978-4.318-26.836-5.818-41.573c-0.725,7.188-1.654,14.465-2.791,21.833
			c-1.139,7.368-2.482,15.19-4.033,23.462l-2.947,15.357H540.101z"/>
		<path d="M581.896,75.829h21.252c8.79,0,15.33,2.094,19.623,6.283c5.43,5.429,8.145,13.728,8.145,24.897
			c0,8.584-1.436,15.474-4.305,20.67c-2.871,5.197-6.969,8.416-12.294,9.656l22.027,58.249h-16.366l-21.949-58.636v58.636h-16.133
			V75.829z M598.029,128.881c6.256,0,10.677-1.447,13.264-4.343c2.584-2.895,3.877-7.782,3.877-14.659
			c0-3.723-0.271-6.903-0.814-9.54c-0.543-2.637-1.396-4.782-2.559-6.438c-1.164-1.654-2.664-2.87-4.499-3.645
			c-1.836-0.776-4.021-1.164-6.554-1.164h-2.715V128.881z"/>
		<path d="M658.363,75.829h16.132v119.754h-16.132V75.829z"/>
		<path d="M742.43,78.312v15.745c-4.914-3.516-9.334-5.274-13.264-5.274c-4.24,0-7.705,1.5-10.393,4.499
			c-2.689,2.844-4.033,6.645-4.033,11.401c0,4.188,0.955,7.783,2.869,10.781c0.982,1.604,2.599,3.672,4.848,6.205
			c2.25,2.534,5.158,5.584,8.726,9.152c6.565,6.67,11.039,12.436,13.418,17.296c2.378,4.706,3.567,10.471,3.567,17.296
			c0,9.256-2.611,16.883-7.833,22.881c-5.224,5.844-11.919,8.764-20.089,8.764c-6.877,0-12.746-1.887-17.605-5.662v-15.978
			c5.739,4.188,10.961,6.283,15.667,6.283c4.394,0,7.833-1.46,10.315-4.382c2.482-2.92,3.723-6.89,3.723-11.906
			c0-4.343-0.957-8.247-2.869-11.711c-0.982-1.654-2.354-3.555-4.111-5.701c-1.758-2.145-3.955-4.538-6.592-7.174
			c-4.086-4.033-7.473-7.601-10.161-10.704s-4.681-5.817-5.972-8.144c-2.482-4.549-3.723-10.289-3.723-17.218
			c0-9.358,2.43-16.779,7.29-22.26c4.911-5.532,11.505-8.299,19.778-8.299C731.726,74.201,737.205,75.571,742.43,78.312z"/>
	</g>
	<g>
		<path d="M289.968,215.823h12.798c2.891,0,5.097,0.655,6.617,1.964c1.521,1.31,2.283,3.023,2.283,5.14
			c0,2.117-0.701,3.73-2.103,4.841c-1.927,1.532-4.304,2.298-7.13,2.298h-4.625v8.858c0,0.515,0.123,0.883,0.368,1.105
			c0.327,0.28,0.766,0.421,1.315,0.421h2.947v1.315h-12.472v-1.315h2.607c0.517,0,0.896-0.103,1.136-0.307s0.361-0.482,0.361-0.833
			V218.63c0-0.526-0.152-0.906-0.458-1.14s-0.881-0.351-1.727-0.351h-1.92V215.823z M297.809,228.786h3.52
			c2.229,0,3.837-0.465,4.824-1.395c0.986-0.93,1.479-2.465,1.479-4.604c0-1.497-0.222-2.646-0.665-3.447s-1.095-1.395-1.952-1.781
			c-0.857-0.386-2.268-0.579-4.229-0.579c-1.296,0-2.116,0.123-2.461,0.368c-0.344,0.246-0.516,0.673-0.516,1.281V228.786z"/>
		<path d="M335.994,215.279c2.187,0,4.236,0.576,6.148,1.728s3.408,2.76,4.49,4.824s1.623,4.388,1.623,6.972
			c0,2.585-0.545,4.917-1.632,6.999s-2.581,3.704-4.481,4.868s-3.915,1.745-6.043,1.745c-2.082,0-4.035-0.57-5.859-1.71
			s-3.289-2.771-4.394-4.894s-1.657-4.476-1.657-7.06c0-2.549,0.535-4.85,1.605-6.902c1.069-2.052,2.533-3.66,4.393-4.824
			S333.982,215.279,335.994,215.279z M336.275,216.63c-2.281,0-4.129,0.947-5.543,2.842c-1.416,1.895-2.123,4.981-2.123,9.262
			c0,4.643,0.725,7.853,2.176,9.63c1.449,1.777,3.244,2.666,5.385,2.666c1.496,0,2.812-0.403,3.946-1.21
			c1.134-0.807,2.038-2.087,2.71-3.841c0.672-1.754,1.009-4.058,1.009-6.911c0-3.11-0.315-5.54-0.947-7.288
			c-0.632-1.748-1.532-3.043-2.701-3.885S337.713,216.63,336.275,216.63z"/>
		<path d="M360.498,215.823h8.666v1.315h-0.612c-0.909,0-1.489,0.07-1.739,0.21c-0.252,0.141-0.377,0.363-0.377,0.667
			c0,0.211,0.088,0.544,0.264,1l0.104,0.333l5.28,16.471l4.635-15.214c-0.541-1.728-0.954-2.738-1.24-3.029
			c-0.285-0.292-0.854-0.438-1.705-0.438h-1.576v-1.315h10.823v1.315h-1.122c-0.98,0-1.617,0.079-1.91,0.237
			c-0.291,0.158-0.438,0.395-0.438,0.71c0,0.246,0.035,0.474,0.105,0.684l5.373,17.05l4.424-14.752
			c0.176-0.573,0.264-1.123,0.264-1.649c0-0.783-0.179-1.359-0.535-1.728c-0.355-0.369-0.891-0.553-1.602-0.553h-0.806v-1.315h8.139
			v1.315c-0.714,0.094-1.281,0.266-1.702,0.518c-0.422,0.251-0.787,0.611-1.098,1.079c-0.311,0.468-0.623,1.246-0.939,2.333
			l-6.393,21.312h-1.248l-5.967-19.065l-5.693,19.065h-1.313l-7.306-23.031c-0.293-0.9-0.623-1.494-0.992-1.781
			c-0.368-0.286-0.956-0.43-1.764-0.43V215.823z"/>
		<path d="M407.174,215.823h20.557l0.492,8.753h-1.176c-0.467-2.76-1.205-4.689-2.216-5.789s-2.327-1.649-3.95-1.649h-5.079
			c-0.409,0-0.718,0.111-0.929,0.333c-0.21,0.222-0.314,0.561-0.314,1.017v9.244h2.221c1.189,0,2.154-0.427,2.895-1.28
			c0.741-0.854,1.141-2.164,1.199-3.929h1.21v12.015h-1.21c-0.059-1.988-0.465-3.412-1.217-4.271s-1.775-1.289-3.069-1.289h-2.028
			v10.314c0,0.375,0.125,0.661,0.376,0.859c0.251,0.199,0.669,0.298,1.253,0.298h4.012c4.355,0,6.866-2.783,7.531-8.35h1.264
			l-0.438,9.665h-21.382v-1.315h1.771c0.689,0,1.175-0.12,1.455-0.36c0.281-0.239,0.422-0.587,0.422-1.043v-20.558
			c0-0.456-0.123-0.795-0.369-1.017c-0.245-0.222-0.631-0.333-1.157-0.333h-2.122V215.823z"/>
		<path d="M441.377,215.823h13.402c2.596,0,4.609,0.591,6.042,1.771c1.433,1.182,2.149,2.731,2.149,4.648
			c0,1.146-0.284,2.167-0.852,3.061c-0.566,0.895-1.385,1.608-2.455,2.14c-1.07,0.532-2.752,0.916-5.043,1.149
			c1.668,0.456,2.816,0.903,3.446,1.342c0.63,0.438,1.134,1.006,1.514,1.701c0.379,0.696,0.817,2.114,1.313,4.254
			c0.355,1.532,0.73,2.578,1.129,3.14c0.304,0.433,0.631,0.649,0.982,0.649c0.361,0,0.698-0.266,1.008-0.798
			c0.311-0.532,0.5-1.471,0.57-2.815h1.193c-0.223,3.976-1.69,5.964-4.403,5.964c-0.854,0-1.594-0.217-2.219-0.649
			c-0.626-0.433-1.097-1.07-1.412-1.912c-0.245-0.631-0.521-2.286-0.825-4.964c-0.175-1.555-0.453-2.66-0.832-3.315
			c-0.381-0.655-0.975-1.181-1.781-1.579s-1.771-0.596-2.895-0.596h-2.121v10.191c0,0.433,0.11,0.737,0.332,0.912
			c0.281,0.222,0.72,0.333,1.316,0.333h2.49v1.315h-12.051v-1.315h2.544c0.562,0,0.974-0.111,1.237-0.333
			c0.262-0.222,0.395-0.526,0.395-0.912v-20.733c0-0.444-0.135-0.777-0.404-1s-0.678-0.333-1.228-0.333h-2.544V215.823z
			 M449.289,227.751h3.068c2.059,0,3.67-0.388,4.833-1.165s1.745-2.157,1.745-4.142c0-1.366-0.219-2.446-0.658-3.239
			c-0.438-0.794-1.014-1.337-1.727-1.629c-0.714-0.292-2.117-0.438-4.211-0.438c-1.379,0-2.232,0.097-2.561,0.289
			c-0.327,0.193-0.49,0.522-0.49,0.989V227.751z"/>
		<path d="M520.833,217.788l1.579-2.263h1.279l0.105,9.455h-1.157c-0.726-2.9-1.798-5.017-3.219-6.35s-3.056-2-4.903-2
			c-1.543,0-2.807,0.462-3.788,1.387c-0.982,0.925-1.474,2.054-1.474,3.389c0,0.831,0.188,1.56,0.561,2.186
			c0.374,0.626,0.932,1.136,1.674,1.527c0.742,0.392,2.143,0.81,4.201,1.251c2.891,0.628,4.916,1.264,6.08,1.907
			c1.163,0.643,2.031,1.453,2.604,2.429c0.573,0.977,0.859,2.12,0.859,3.429c0,2.339-0.786,4.277-2.358,5.815
			c-1.574,1.538-3.605,2.307-6.096,2.307c-2.678,0-5.006-0.865-6.981-2.596l-1.982,2.421h-1.263v-10.051h1.263
			c0.491,2.771,1.591,4.958,3.298,6.561s3.631,2.403,5.771,2.403c1.73,0,3.143-0.511,4.235-1.535c1.093-1.023,1.64-2.266,1.64-3.728
			c0-0.83-0.204-1.558-0.613-2.184c-0.41-0.625-1.059-1.152-1.947-1.579s-2.637-0.944-5.244-1.553
			c-2.865-0.678-4.818-1.438-5.859-2.28c-1.461-1.192-2.192-2.882-2.192-5.069c0-2.28,0.728-4.148,2.185-5.604
			c1.455-1.456,3.317-2.184,5.586-2.184c1.088,0,2.123,0.193,3.105,0.579S519.78,216.888,520.833,217.788z"/>
		<path d="M536.338,215.823h11.367v1.315h-1.26c-1.05,0-1.732,0.082-2.047,0.246c-0.315,0.164-0.473,0.392-0.473,0.684
			c0,0.304,0.082,0.579,0.246,0.825l6.583,10.223l4.737-8.715c0.211-0.386,0.316-0.807,0.316-1.263c0-0.608-0.199-1.093-0.596-1.456
			c-0.398-0.362-0.965-0.544-1.702-0.544h-1.21v-1.315h9.893v1.315c-1.129,0-2.021,0.199-2.673,0.597
			c-0.651,0.397-1.28,1.146-1.886,2.245l-6.001,10.963v8.209c0,0.433,0.123,0.743,0.368,0.93c0.34,0.246,0.842,0.369,1.509,0.369
			h2.228v1.315h-11.91v-1.315h2.351c0.632,0,1.087-0.114,1.368-0.342s0.421-0.546,0.421-0.956v-7.981l-8.052-12.542
			c-0.35-0.538-0.76-0.915-1.227-1.131c-0.469-0.216-1.252-0.336-2.352-0.36V215.823z"/>
		<path d="M588.153,217.788l1.579-2.263h1.279l0.105,9.455h-1.157c-0.726-2.9-1.798-5.017-3.219-6.35s-3.056-2-4.903-2
			c-1.543,0-2.807,0.462-3.788,1.387c-0.982,0.925-1.474,2.054-1.474,3.389c0,0.831,0.188,1.56,0.561,2.186
			c0.374,0.626,0.932,1.136,1.674,1.527c0.742,0.392,2.143,0.81,4.201,1.251c2.891,0.628,4.916,1.264,6.08,1.907
			c1.163,0.643,2.031,1.453,2.604,2.429c0.573,0.977,0.859,2.12,0.859,3.429c0,2.339-0.786,4.277-2.358,5.815
			c-1.574,1.538-3.605,2.307-6.096,2.307c-2.678,0-5.006-0.865-6.981-2.596l-1.982,2.421h-1.263v-10.051h1.263
			c0.491,2.771,1.591,4.958,3.298,6.561s3.631,2.403,5.771,2.403c1.73,0,3.143-0.511,4.235-1.535c1.093-1.023,1.64-2.266,1.64-3.728
			c0-0.83-0.204-1.558-0.613-2.184c-0.41-0.625-1.059-1.152-1.947-1.579s-2.637-0.944-5.244-1.553
			c-2.865-0.678-4.818-1.438-5.859-2.28c-1.461-1.192-2.192-2.882-2.192-5.069c0-2.28,0.728-4.148,2.185-5.604
			c1.455-1.456,3.317-2.184,5.586-2.184c1.088,0,2.123,0.193,3.105,0.579S587.101,216.888,588.153,217.788z"/>
		<path d="M605.447,215.823h21.066l0.51,9.805h-1.211c-0.797-5.765-2.883-8.647-6.258-8.647c-0.68,0-1.146,0.117-1.398,0.351
			c-0.252,0.234-0.377,0.62-0.377,1.158v20.733c0,0.421,0.123,0.731,0.368,0.93c0.245,0.199,0.649,0.298,1.21,0.298h2.613v1.315
			h-12.05v-1.315h2.981c0.398,0,0.702-0.099,0.912-0.298c0.211-0.199,0.316-0.462,0.316-0.79v-21.031
			c0-0.444-0.135-0.781-0.404-1.009c-0.269-0.228-0.701-0.342-1.297-0.342c-1.696,0-3.111,0.801-4.246,2.403
			c-0.936,1.322-1.607,3.403-2.017,6.245h-1.28L605.447,215.823z"/>
		<path d="M639.88,215.823h20.558l0.491,8.753h-1.175c-0.467-2.76-1.206-4.689-2.217-5.789c-1.01-1.099-2.326-1.649-3.949-1.649
			h-5.08c-0.408,0-0.718,0.111-0.928,0.333c-0.211,0.222-0.315,0.561-0.315,1.017v9.244h2.222c1.189,0,2.154-0.427,2.895-1.28
			s1.141-2.164,1.198-3.929h1.21v12.015h-1.21c-0.058-1.988-0.464-3.412-1.216-4.271s-1.775-1.289-3.07-1.289h-2.028v10.314
			c0,0.375,0.126,0.661,0.376,0.859c0.252,0.199,0.669,0.298,1.253,0.298h4.012c4.356,0,6.866-2.783,7.532-8.35h1.264l-0.439,9.665
			H639.88v-1.315h1.771c0.69,0,1.175-0.12,1.456-0.36c0.28-0.239,0.421-0.587,0.421-1.043v-20.558c0-0.456-0.123-0.795-0.368-1.017
			c-0.246-0.222-0.632-0.333-1.158-0.333h-2.122V215.823z"/>
		<path d="M673.768,215.823h8.638l7.755,20.488l7.135-20.488h8.836v1.315h-2.158c-0.76,0-1.271,0.111-1.534,0.333
			s-0.396,0.608-0.396,1.158v20.54c0,0.41,0.158,0.726,0.475,0.947c0.315,0.222,0.859,0.333,1.631,0.333h1.982v1.315h-11.875v-1.315
			h2.219c0.635,0,1.104-0.12,1.41-0.36c0.305-0.239,0.457-0.546,0.457-0.921v-22.031l-8.578,24.627h-1.182l-9.236-24.522v18.856
			c0,1.123,0.141,1.962,0.421,2.517s0.681,0.982,1.202,1.28c0.52,0.298,1.383,0.482,2.587,0.553v1.315h-9.788v-1.315
			c1.602-0.105,2.689-0.45,3.263-1.035c0.573-0.584,0.859-1.62,0.859-3.104v-17.892c0-0.444-0.134-0.769-0.403-0.974
			s-0.771-0.307-1.508-0.307h-2.211V215.823z"/>
		<path d="M733.389,217.788l1.578-2.263h1.281l0.105,9.455h-1.158c-0.725-2.9-1.798-5.017-3.219-6.35s-3.055-2-4.902-2
			c-1.544,0-2.807,0.462-3.789,1.387s-1.474,2.054-1.474,3.389c0,0.831,0.187,1.56,0.562,2.186c0.373,0.626,0.932,1.136,1.674,1.527
			c0.741,0.392,2.143,0.81,4.201,1.251c2.889,0.628,4.915,1.264,6.079,1.907c1.163,0.643,2.032,1.453,2.604,2.429
			c0.572,0.977,0.859,2.12,0.859,3.429c0,2.339-0.786,4.277-2.359,5.815c-1.572,1.538-3.604,2.307-6.096,2.307
			c-2.678,0-5.004-0.865-6.98-2.596l-1.982,2.421h-1.263v-10.051h1.263c0.491,2.771,1.59,4.958,3.298,6.561
			c1.707,1.602,3.631,2.403,5.771,2.403c1.73,0,3.143-0.511,4.236-1.535c1.094-1.023,1.641-2.266,1.641-3.728
			c0-0.83-0.205-1.558-0.614-2.184s-1.059-1.152-1.947-1.579s-2.637-0.944-5.245-1.553c-2.865-0.678-4.817-1.438-5.857-2.28
			c-1.463-1.192-2.193-2.882-2.193-5.069c0-2.28,0.729-4.148,2.184-5.604c1.456-1.456,3.318-2.184,5.587-2.184
			c1.088,0,2.122,0.193,3.104,0.579S732.336,216.888,733.389,217.788z"/>
	</g>
</g>
</svg>
